<svg width="47" height="46" viewBox="0 0 47 46" fill="none" xmlns="http://www.w3.org/2000/svg">
<path fill-rule="evenodd" clip-rule="evenodd" d="M38.4188 0.825867H8.88924C4.41217 0.825867 0.792419 4.43531 0.792419 8.89962V37.2052C0.792419 41.6695 4.41217 45.279 8.88924 45.279H38.4188C42.8959 45.279 46.5156 41.6695 46.5156 37.2052V8.89962C46.5156 4.43531 42.8959 0.825867 38.4188 0.825867ZM10.3181 32.5106V13.2765C10.3181 13.1457 10.3752 13.0709 10.5086 13.0709C10.8325 13.0709 11.1373 13.0709 11.5755 13.0522C11.8109 13.0426 12.0513 13.0379 12.2994 13.0331H12.2995H12.2995L12.2996 13.0331C12.5334 13.0286 12.7739 13.0239 13.0234 13.0148C13.2894 13.0052 13.5657 13.0005 13.8521 12.9956H13.8522C14.1195 12.9911 14.3957 12.9865 14.6808 12.9774C15.2714 12.9587 15.843 12.9587 16.4145 12.9587C17.9767 12.9587 19.2722 13.1457 20.3391 13.5382C21.2917 13.856 22.168 14.3793 22.892 15.071C23.5016 15.6691 23.9779 16.3981 24.2827 17.2018C24.5685 17.9869 24.7209 18.7907 24.7209 19.6318C24.7209 21.2393 24.3399 22.5665 23.5778 23.6132C22.8158 24.66 21.7489 25.445 20.5106 25.8937C19.2151 26.361 17.7862 26.5292 16.224 26.5292C15.7668 26.5292 15.4619 26.5292 15.2714 26.5105C15.0809 26.4918 14.8142 26.4918 14.4522 26.4918V32.492C14.4713 32.6228 14.376 32.7349 14.2427 32.7536H10.5467C10.3943 32.7536 10.3181 32.6789 10.3181 32.5106ZM14.4713 16.6785V22.959L14.5284 22.963L14.5285 22.963C14.7735 22.9803 15.0021 22.9964 15.2143 22.9964H16.224C16.967 22.9964 17.71 22.8842 18.4149 22.6599C19.0245 22.4917 19.558 22.1365 19.9771 21.6692C20.3772 21.2019 20.5677 20.5664 20.5677 19.744C20.5868 19.1645 20.4343 18.5851 20.1295 18.0804C19.8057 17.5944 19.3484 17.2205 18.7959 17.0149C18.091 16.7345 17.329 16.6224 16.5479 16.6411C16.0525 16.6411 15.6144 16.6411 15.2524 16.6598C14.8714 16.6411 14.6046 16.6598 14.4713 16.6785ZM34.78 21.1833C35.4277 21.3141 36.0374 21.5197 36.6089 21.8188C36.6851 21.8562 36.7804 21.8562 36.9519 21.8188C37.009 21.7814 37.0471 21.7066 37.0471 21.6319V18.5851C37.0471 18.5103 37.0281 18.4355 37.009 18.3608C36.9709 18.286 36.8947 18.2112 36.8185 18.1925C36.3041 17.9869 35.7516 17.8374 35.1801 17.7626C34.399 17.6505 33.5988 17.5944 32.8177 17.5944C31.4651 17.5944 30.341 17.8 29.4456 18.2486C28.6264 18.6224 27.9215 19.2206 27.4452 19.9683C27.0261 20.6599 26.7975 21.4263 26.7975 22.23C26.7784 22.8842 26.9309 23.5385 27.2357 24.1366C27.5977 24.7721 28.093 25.3142 28.6836 25.7254C29.5218 26.2862 30.4172 26.7348 31.3889 27.0713C32.3224 27.4264 32.9511 27.7068 33.2559 27.9498C33.5607 28.1928 33.7131 28.4358 33.7131 28.6975C33.7131 29.0339 33.5036 29.3517 33.1987 29.4825C32.8558 29.6508 32.3414 29.7442 31.6175 29.7442C30.8554 29.7442 30.0934 29.6508 29.3694 29.4638C28.5312 29.2769 27.7501 28.9778 27.0071 28.5479C26.9499 28.5105 26.8928 28.4918 26.8356 28.5292C26.7784 28.5666 26.7594 28.6414 26.7594 28.6975V31.9499C26.7403 32.0994 26.8356 32.2303 26.969 32.305C27.5786 32.5854 28.2454 32.791 28.9122 32.9032C29.7695 33.0714 30.6268 33.1462 31.5032 33.1462C32.8749 33.1462 34.018 32.9406 34.9515 32.548C35.8088 32.2116 36.5518 31.6321 37.0852 30.8844C37.5806 30.1554 37.8473 29.2769 37.8282 28.3984C37.8473 27.7255 37.6949 27.0713 37.39 26.4731C37.0281 25.8376 36.5137 25.3142 35.885 24.9217C34.9705 24.3609 33.9799 23.8936 32.9511 23.5571C32.4938 23.3702 32.0366 23.1646 31.5984 22.9403C31.3508 22.8095 31.1221 22.6412 30.9507 22.4356C30.8364 22.2861 30.7602 22.1179 30.7602 21.9496C30.7602 21.7814 30.8173 21.5945 30.9126 21.4449C31.0459 21.258 31.2555 21.1272 31.5032 21.0711C31.8652 20.9776 32.2652 20.9216 32.6463 20.9403C33.3702 20.9403 34.0751 21.0337 34.78 21.1833Z" fill="black"/>
</svg>
