<svg width="21" height="45" viewBox="0 0 21 45" fill="none" xmlns="http://www.w3.org/2000/svg">
<path d="M14.4135 5.73993C12.5805 3.5797 10.9875 1.41946 10.682 0.944214H10.6165C10.311 1.39786 8.71803 3.5797 6.88499 5.73993C-8.82678 25.5925 9.37269 38.9859 9.37269 38.9859L9.52544 39.0939C9.65637 41.1461 10.0055 44.1273 10.0055 44.1273H11.3585C11.3585 44.1273 11.6858 41.1677 11.8167 39.0939L11.9695 38.9643C11.9695 38.9643 30.1253 25.5925 14.4135 5.73993ZM10.6165 38.6835C10.2341 38.3724 9.88327 38.0252 9.56909 37.6466L10.6165 16.0442L11.5985 37.6466C11.3041 38.0214 10.9754 38.3685 10.6165 38.6835Z" fill="black"/>
</svg>
