<svg width="49" height="48" viewBox="0 0 49 48" fill="none" xmlns="http://www.w3.org/2000/svg">
<path d="M47.7375 46.5236L46.7337 45.5757C46.2551 44.9474 45.7201 44.3634 45.1352 43.8307L45.1253 43.8229C44.5351 43.2915 43.9219 42.7862 43.2857 42.307C42.7759 41.9597 42.0751 41.5413 41.1833 41.0517C40.4596 40.7333 39.8828 40.1574 39.5669 39.4379L39.559 39.4183L39.4642 39.3713C39.8831 39.3302 40.2664 39.2538 40.634 39.1461L40.5885 39.1578L41.7148 38.8503C42.1811 38.7054 42.7206 38.6114 43.2798 38.5899H43.2916C43.8804 38.5664 44.4357 38.4724 44.9652 38.3176L44.9158 38.3294C45.1714 38.2667 45.4342 38.1956 45.7042 38.1159C45.9743 38.0363 46.2055 37.9651 46.3978 37.9024V37.5715C46.2068 37.2881 45.9756 36.9643 45.7042 36.6C45.4526 36.2592 45.1585 35.9513 44.8289 35.6835L44.819 35.6757C43.9904 34.9497 43.1322 34.2473 42.2444 33.5683C41.412 32.9273 40.5474 32.3286 39.6539 31.7744L39.5195 31.696C39.0042 31.3622 38.4584 31.0769 37.8894 30.8441L37.8222 30.8206C37.232 30.583 36.6504 30.3225 36.0774 30.0392C35.871 29.939 35.6544 29.8608 35.4313 29.8061L35.4095 29.8022C35.1867 29.7582 34.985 29.6418 34.8365 29.4712L34.8345 29.4693C34.5542 29.1004 34.3188 28.7001 34.1331 28.2765L34.1173 28.2374C33.9263 27.7948 33.7195 27.3698 33.4968 26.9624C33.0187 26.0458 32.5563 25.1143 32.1097 24.1677C31.6631 23.2211 31.2344 22.2732 30.8234 21.324C30.5375 20.692 30.2747 20.0608 30.035 19.4301C29.7925 18.7873 29.4874 18.1694 29.1241 17.5852L29.1497 17.6303C28.3623 16.2922 27.4836 15.0091 26.5198 13.7897L26.5751 13.8641C25.6931 12.757 24.7295 11.7161 23.6922 10.7502L23.6764 10.7365C22.6562 9.78783 21.5794 8.90099 20.4516 8.08078L20.3548 8.01223C19.1745 7.16226 17.8835 6.32534 16.4819 5.50147C15.8861 5.15705 15.2442 4.89792 14.5751 4.73179L14.5238 4.72004L12.3245 4.17559L11.0817 4.08158C10.668 4.05024 10.2537 4.03458 9.83878 4.03458C9.55896 3.88942 9.30147 3.70543 9.07409 3.48816C8.85432 3.28096 8.62134 3.08798 8.37658 2.91041L8.35682 2.8967C7.07328 2.16259 5.72143 1.55265 4.31996 1.07533L4.152 1.0244C3.80346 0.826759 3.41452 0.709351 3.01399 0.680874C2.61346 0.652397 2.2116 0.71358 1.83816 0.859893L1.85595 0.854018C1.48821 0.996951 1.15679 1.21848 0.885279 1.50282C0.613764 1.78717 0.408831 2.12734 0.285067 2.49913L0.27914 2.51872C0.0694574 3.0178 0.00133331 3.56417 0.0821257 4.09883C0.162918 4.63349 0.389556 5.1361 0.73756 5.55239L0.733608 5.54652C1.45022 6.49311 1.99953 7.23733 2.38155 7.77918C2.6674 8.15912 2.96248 8.55408 3.26678 8.96405C3.54538 9.33224 3.79238 9.75331 3.99195 10.1979L4.00776 10.239C4.11841 10.4721 4.21523 10.7502 4.28637 11.0361L4.29229 11.0674C4.35552 11.3364 4.43522 11.6289 4.53138 11.9448C4.81724 12.6708 5.08794 13.415 5.3435 14.1775C5.62211 15.0099 5.93036 15.7149 6.288 16.3867L6.25046 16.3083C6.44147 16.6556 6.63313 16.9951 6.82546 17.3267C7.01779 17.6584 7.2246 17.9822 7.44591 18.2981C7.57141 18.4858 7.73328 18.6469 7.92211 18.7721L7.92804 18.776C8.02699 18.8464 8.10849 18.9381 8.16635 19.0443C8.2242 19.1505 8.25691 19.2684 8.26198 19.389V19.391C8.02885 19.7342 7.88184 20.1277 7.83319 20.5386L7.83122 20.5504C7.76923 21.0117 7.66809 21.467 7.5289 21.9115L7.54471 21.8528C7.07989 23.2632 6.84575 24.7383 6.85115 26.2221C6.85115 26.7274 6.87683 27.2248 6.93019 27.7164L6.92426 27.6557C7.04281 29.5319 7.61386 31.2554 8.52873 32.7477L8.50107 32.6988C8.89033 33.2765 9.30725 33.7799 9.76765 34.2401C10.0351 34.5383 10.3954 34.7394 10.7914 34.8114C11.1873 34.8834 11.5962 34.8223 11.953 34.6377L11.9432 34.6416C12.2856 34.5219 12.5843 34.3041 12.8014 34.0156C13.0185 33.7272 13.1442 33.3813 13.1623 33.0219V33.018C13.2572 32.0897 13.3994 31.2593 13.5951 30.4485L13.5694 30.5797C13.6194 30.4476 13.6449 30.3076 13.6445 30.1665L13.6405 30.0783V30.0823C13.6247 29.9399 13.7123 29.8055 13.9033 29.6788V29.7728C14.0943 30.2154 14.2932 30.6574 14.5 31.0987C14.7069 31.54 14.9216 31.982 15.1442 32.4246C15.7271 33.3039 16.3456 34.0717 17.0253 34.7787L17.0194 34.7728C17.6956 35.4965 18.4414 36.1531 19.2463 36.7332L19.2898 36.7626C19.7087 37.0799 20.0762 37.4226 20.4081 37.7967L20.416 37.8045C20.7282 38.1688 21.1017 38.4684 21.5226 38.6937L21.5423 38.7034V38.6564H21.6372C21.5622 38.4901 21.4382 38.3502 21.2815 38.255L21.2776 38.253C21.1326 38.1738 20.9933 38.0848 20.8606 37.9866L20.8705 37.9925C20.5847 37.7092 20.2896 37.3932 19.9853 37.0446C19.681 36.696 19.4024 36.3644 19.1495 36.0497C18.4803 35.1332 17.842 34.1755 17.2348 33.1766C16.6275 32.1778 16.0538 31.1627 15.5137 30.1312C15.2582 29.6259 15.0112 29.105 14.7727 28.5684C14.5343 28.0317 14.3031 27.5108 14.0792 27.0055C13.9778 26.8001 13.9136 26.5787 13.8895 26.3514V26.3416C13.8841 26.234 13.8508 26.1296 13.7926 26.0387C13.7344 25.9477 13.6534 25.8733 13.5575 25.8226L13.5536 25.8206C13.3273 26.2061 13.0568 26.5643 12.7474 26.888L12.7494 26.886C12.432 27.2175 12.1764 27.6021 11.9945 28.0219L11.9847 28.0474C11.6889 28.7707 11.4967 29.5314 11.4136 30.3075L11.4097 30.3447C11.3148 31.1816 11.2193 32.042 11.1232 32.926L11.0283 32.973L10.9809 33.02C10.7335 32.9708 10.5004 32.8673 10.2987 32.7172C10.097 32.5671 9.93171 32.3741 9.81507 32.1524L9.81112 32.1426C9.57137 31.6843 9.35665 31.2338 9.16696 30.7912C8.64934 29.4489 8.36667 28.0289 8.33113 26.5923V26.5746C8.22851 25.0396 8.42026 23.4992 8.89626 22.0349L8.87254 22.1211C8.96739 21.7738 9.17421 21.1888 9.49299 20.3663C9.81178 19.5437 9.87567 18.9751 9.68466 18.6604C9.59041 18.349 9.40882 18.0705 9.16103 17.8575L9.15906 17.8555C8.92288 17.6528 8.70167 17.4335 8.49711 17.1994L8.49119 17.1916C8.26856 16.873 8.05384 16.5335 7.84703 16.1732C7.64021 15.8128 7.45711 15.4577 7.29771 15.1078C6.92977 14.2448 6.61695 13.3598 6.36111 12.458L6.31764 12.2837C6.03649 11.2759 5.67576 10.2917 5.23877 9.34008L5.29015 9.46542C5.08572 9.00038 4.82709 8.56065 4.51953 8.1552L4.53138 8.17087C4.20996 7.74523 3.92279 7.34244 3.66987 6.96249C3.34845 6.55252 3.02966 6.15756 2.71351 5.77762C2.38406 5.38213 2.10162 4.95038 1.87175 4.4909L1.85397 4.45173C1.75287 4.24714 1.67405 4.03245 1.61883 3.81131L1.61488 3.78977C1.58093 3.67851 1.57201 3.56122 1.58874 3.44618C1.60547 3.33113 1.64744 3.22112 1.7117 3.12389L1.70973 3.1278C1.73085 3.0219 1.78072 2.92372 1.85397 2.84383C1.93397 2.77296 2.03145 2.72431 2.13653 2.70282H2.14048C2.29638 2.6026 2.4756 2.54368 2.66102 2.53168C2.84644 2.51968 3.03187 2.555 3.19959 2.63427L3.19367 2.63231C3.6264 2.75374 3.97614 2.87516 4.31798 3.01421L4.24685 2.98875C4.85149 3.24205 5.40936 3.48686 5.92048 3.72318C6.50931 4.00128 7.0112 4.29505 7.48543 4.62212L7.44986 4.59862C7.70542 4.7566 7.96031 4.93025 8.21455 5.11957C8.46879 5.30889 8.7395 5.49886 9.02667 5.68949H9.69652C10.2063 5.68949 10.7477 5.71364 11.3207 5.76195C11.8997 5.80699 12.4352 5.91471 12.945 6.08314L12.8976 6.06943C13.848 6.34949 14.6641 6.68047 15.4386 7.07804L15.3576 7.04083C16.1388 7.43514 16.8798 7.8536 17.5806 8.29621C18.7444 9.01497 19.7501 9.75136 20.6966 10.5563L20.663 10.5289C21.651 11.3671 22.5481 12.2269 23.3898 13.1356L23.4096 13.1591C24.2316 14.0482 25.0161 15.0138 25.7333 16.0263L25.7946 16.1183C26.4545 17.0427 27.1204 18.1121 27.7192 19.2206L27.8021 19.387C27.9786 19.7269 28.133 20.0775 28.2645 20.4368L28.2862 20.5014C28.414 20.8644 28.557 21.2365 28.715 21.6177C29.0654 22.4077 29.4409 23.2048 29.8413 24.009C30.2418 24.8133 30.6172 25.5954 30.9676 26.3553L32.0188 28.6291C32.3883 29.4242 32.8013 30.1097 33.2814 30.7423L33.2597 30.7129C33.6608 31.1379 34.1963 31.4356 34.797 31.5394L34.8128 31.5413C35.54 31.7215 36.1525 31.9252 36.7453 32.1661L36.6524 32.1328C36.935 32.2601 37.2986 32.3952 37.672 32.5147L37.751 32.5362C38.1699 32.6635 38.5335 32.8319 38.8675 33.0435L38.8497 33.0337C39.4958 33.3921 40.0431 33.7446 40.5648 34.1285L40.5233 34.0991C41.0647 34.4934 41.6061 34.8655 42.1475 35.2154C42.4031 35.4047 42.8319 35.6809 43.4339 36.0438C44.0359 36.4068 44.3547 36.7463 44.3902 37.0622C43.1796 37.0207 41.9676 37.0777 40.7663 37.2326L40.877 37.2209C39.8738 37.35 38.8916 37.6067 37.9546 37.9847L38.0336 37.9573C37.7853 38.0616 37.5289 38.1461 37.2669 38.2099L37.2294 38.2177C37.0933 38.2371 36.9676 38.3011 36.8724 38.3993C36.7772 38.4976 36.7178 38.6247 36.7038 38.7602V38.7622C36.8243 38.911 36.9211 39.0834 36.9864 39.2714L36.9903 39.2832C37.0575 39.4829 37.1385 39.6553 37.2373 39.8159L37.2314 39.8041C37.4665 40.2174 37.7194 40.5738 38.004 40.9028L37.9961 40.893C38.2747 41.2338 38.5888 41.5295 38.9366 41.7822L38.9504 41.792C39.2719 42.0453 39.6065 42.3057 39.9542 42.5734C40.2724 42.8202 40.632 43.063 41.0054 43.2824L41.0529 43.3078C41.614 43.6486 42.2661 43.9737 42.9458 44.2459L43.0367 44.2773C43.7757 44.571 44.41 44.9118 44.9988 45.3172L44.9672 45.2957C45.3505 45.5163 45.7326 45.7611 46.1133 46.0301C46.494 46.2991 46.8602 46.5595 47.2119 46.8115C47.3561 46.9525 47.4826 47.1092 47.5893 47.2796L47.5952 47.2894C47.7774 47.4977 48.0307 47.6323 48.3066 47.6674H48.3125V47.5734C48.1378 47.4423 48.0103 47.259 47.9489 47.0505L47.9469 47.0426C47.9017 46.8541 47.8271 46.6737 47.7256 46.508L47.7296 46.5158L47.7375 46.5236ZM11.0323 8.91117C10.7767 8.91117 10.5376 8.91901 10.315 8.93467C10.0978 8.94852 9.88328 8.98999 9.67676 9.05806L9.69454 9.05218V9.09918H9.78938C9.91716 9.2885 10.0779 9.50132 10.2715 9.73765C10.4652 9.97397 10.6404 10.2031 10.7971 10.4251L11.5618 11.9879L11.6567 11.9409C11.8792 11.7822 12.0518 11.5642 12.1546 11.3123L12.1585 11.3025C12.2613 11.0302 12.3206 10.713 12.3206 10.3839L12.3186 10.2782V10.2841C12.229 10.1977 12.1566 10.0954 12.1052 9.98246L12.1032 9.97658L11.9432 9.62014C11.8407 9.4579 11.6941 9.32757 11.5203 9.24411L11.5144 9.24215C11.3368 9.15812 11.1741 9.04637 11.0323 8.91117Z" fill="black"/>
</svg>
